<svg xmlns="http://www.w3.org/2000/svg" viewBox="0 0 512 512" role="img" aria-labelledby="title description">
  <title id="title">Ferramentas Lippel</title>
  <desc id="description">Símbolo da Lippel com o nome Ferramentas</desc>
  <rect width="512" height="512" fill="#f8fafc"/>
  <g transform="translate(130 30) scale(4.8)">
    <path fill="#078938" d="M31.04,9.08"/>
    <path fill="#078938" d="M11.48,29.56h.37c1.65-.06,3.36.38,5.03.32,7.22-.02,13.67-4.38,14.71-11.26.25-1.46.28-2.94.16-4.41l-.11-.29c.1,3.02-.48,6.12-2.2,8.7-2.61,4-7.74,6.04-12.64,5.84-1.72-.02-3.31-.54-5.04-.55-2.95-.13-5.95,1.1-7.88,3.21l-.28-.84c-.02-.09-.05-.17-.07-.26-.08-.3-.15-.6-.22-.9,0-.02,0-.05-.01-.07,0-.03-.01-.06-.02-.09-.06-.27-.11-.53-.15-.8-.01-.08-.03-.17-.04-.25,0,0,0,0,0-.01-.05-.32-.09-.63-.13-.95,0-.03,0-.06,0-.09-.03-.3-.05-.6-.07-.9,0-.03,0-.06,0-.1,0-.05,0-.11,0-.16-.02-.33-.03-.66-.03-.99h0c-.26-7.88,5.55-16.74,12.69-19.34.27-.1.54-.19.82-.27.05-.01.1-.03.14-.04,3.98-1.12,7.89-.15,11.48,2.83-1.68.16-3.34.65-4.83,1.32-.8.32-1.58.68-2.35,1.07-.08.04-.16.08-.24.12-.29.15-.57.3-.85.46-.1.05-.2.11-.29.16l-.18.11c-1.85,1.07-3.6,2.3-5.2,3.67l.11.12c1.48-.95,3.02-1.82,4.62-2.58,1.16-.58,2.35-1.09,3.58-1.52.08-.03.16-.05.23-.08.19-.06.38-.13.57-.19.11-.03.21-.07.32-.1.18-.05.36-.11.54-.16.14-.04.28-.08.42-.11.25-.07.5-.13.76-.19.18-.04.36-.08.53-.12.13-.03.26-.06.39-.08.19-.04.38-.08.56-.11.12-.02.24-.04.35-.06.24-.04.49-.08.73-.11.06,0,.13-.02.19-.03.32-.04.64-.08.96-.12.78-.08,1.56-.13,2.35-.15.82,0,1.64.07,2.51.17l.08-.2c-.85-.56-1.77-.93-2.72-1.13-.48-.49-.97-.95-1.47-1.38-.45-.43-.97-.82-1.53-1.18-4.16-2.91-8.78-3.6-13.35-1.94-3.99,1.46-7.6,4.66-10.16,8.59-.39.58-.76,1.18-1.09,1.8-.19.35-.38.71-.55,1.07-.42.87-.78,1.77-1.08,2.69-.79,2.31-1.2,4.69-1.14,7h0s0,.02,0,.03c0,.02,0,.03,0,.05h0c0,.38.01.77.03,1.15.01.27.04.53.06.79.01.13.02.27.03.4.04.36.09.73.15,1.08,0,.03,0,.06.01.09.4,2.47,1.21,4.82,2.36,6.98.1.19.4.16.46-.04.39-1.23,1.1-2.34,2.03-3.24,1.44-1.43,3.48-2.31,5.62-2.41Z"/>
    <path fill="#004e8a" d="M33.28,13.04c1.3.66,2.74,1.1,4.22,1.27.53.05,1.01.05,1.46,0,.1,0,.19,0,.28,0,1.25,2.62,2,5.18,2.22,7.62.13,1.38.11,2.78-.05,4.18-4.94,1.03-9.77-.09-9.77-.09l-.16.18h0s-.34.34-.34.34c0,0,5.02,1.75,10.02,1.21h0s0,.02,0,.02c-.78,3.98-2.71,7.9-5.73,11.68-4.49.34-9.25-.49-13.85-2.42l-.44-.19,2.91-6.12h0c-.18.03-.35.06-.53.09h0c-.09.01-.18.03-.28.04l-3.47,5.36c-2.59-1.23-5.21-2.82-7.81-4.74-.19.03-.38.07-.55.1.01.01.03.02.04.03-.17.02-.33.05-.48.08,2.67,2.31,5.3,4.17,8.04,5.68l-.1.15s0,0,0,0l-4.02,6.21c-3.58-2.03-6.53-4.94-8.51-8.41-.16.36-.29.74-.38,1.13l-.27,1.15c-.06.26,0,.54.15.76,4.77,6.61,12.97,10.86,22.21,10.49,13.08-.52,23.71-10.45,24.32-22.7.68-13.7-10.97-25-25.44-25-1.24,0-2.45.09-3.64.25-.19.03-.2.28,0,.32,1.32.24,2.83.66,4.17,1.4.02,0,.03,0,.05.01,8.29.19,15.51,4.42,19.5,10.68-1.55-.86-3.38-1.58-5.17-1.97-.06-.61-.27-1.16-.51-1.62,0,0,0-.02-.01-.03-.05-.09-.1-.18-.15-.27-.01-.02-.02-.04-.03-.06-.36-.57-.71-.92-.71-.92-.92-.99-2.02-1.81-3.24-2.44l-.58-.28c-1.2-.55-2.5-.91-3.84-1.06-.43-.04-.89-.05-1.36-.01-.11,0-.16.14-.07.22.27.23.52.46.75.71.19.19.37.39.49.52.18,0,.41,0,.57.01,2.47.19,4.66,1.32,6.35,3.03,2.28,2.34,1.44,4.14-1.9,3.91-1.36-.11-3.15-.7-4.38-1.3v.8ZM40.09,14.19l.15-.02c.8-.29,1.34-.9,1.55-1.55v-.05c2.59,1.04,4.84,2.63,6.4,4.55.46.54.87,1.11,1.16,1.62.26.81.47,1.64.62,2.49-1.55,1.94-3.9,3.47-6.72,4.39l-.14.04c.06-1.71-.1-3.39-.47-5.02-.49-2.14-1.35-4.3-2.56-6.45ZM27.64,46.87c-.22,0-.44.01-.67.01-3.46,0-6.74-.71-9.69-1.97l3.21-6.75c4.15,2.1,8.64,3.26,13.1,3.39l-.22.24c-1.7,1.8-3.65,3.52-5.73,5.08ZM32.46,46.28c.37-.36.81-.77,1.2-1.17,1.13-1.16,2.2-2.38,3.17-3.64,2.6-.22,5.16-.85,7.48-1.79-3.1,3.21-7.2,5.55-11.85,6.6ZM50.33,25.01c0,.37-.01.74-.03,1.11,0,0,0,.01,0,.02-.02.37-.05.73-.09,1.09,0,.02,0,.04,0,.06-.31,2.77-1.17,5.38-2.48,7.75-2.23,1.65-5.09,2.98-8.23,3.76-.18.05-.37.09-.55.13l-.38.07c2.44-3.77,3.96-7.72,4.42-11.5,2.83-.55,5.35-1.66,7.33-3.23,0,.24.02.49.02.73,0,0,0,0,0,.01Z"/>
  </g>
  <text
    x="256"
    y="382"
    fill="#004e8a"
    font-family="Bahnschrift, Arial, sans-serif"
    font-size="39"
    font-weight="700"
    letter-spacing="4"
    text-anchor="middle"
  >FERRAMENTAS</text>
</svg>
